Coordinates
version=1
nRows=13
nColumns=22
inDegrees=yes

Units are S.I. units (second, meters, Newtons, ...)
If the header above contains a line with 'inDegrees', this indicates whether rotational values are in degrees (yes) or radians (no).

endheader
time	pelvis_tilt	pelvis_list	pelvis_rotation	pelvis_tx	pelvis_ty	pelvis_tz	hip_flexion_r	hip_adduction_r	hip_rotation_r	knee_angle_r	ankle_angle_r	subtalar_angle_r	hip_flexion_l	hip_adduction_l	hip_rotation_l	knee_angle_l	ankle_angle_l	subtalar_angle_l	lumbar_extension	lumbar_bending	lumbar_rotation
      0.01000000	     -0.03619171	     -4.33785508	     -5.13968380	     -1.35016569	      1.02545755	     -0.42993753	      0.91128662	      6.23689648	     -2.43990899	     -8.93714860	      7.61984653	     -5.25452582	      1.11753816	     -3.40864839	     -9.19823204	    -10.20396483	     11.15822038	     -1.95393908	     -8.38558166	      2.69360925	      1.41095658
      0.02000000	     -0.03593252	     -4.33470422	     -5.09989448	     -1.35020487	      1.02545638	     -0.42990475	      0.90778249	      6.23863543	     -2.46863861	     -8.92428092	      7.60476663	     -5.25954993	      1.12923499	     -3.41121864	     -9.17407997	    -10.21048325	     11.15688144	     -1.95320701	     -8.39662454	      2.68135504	      1.43624014
      0.03000000	     -0.03424297	     -4.32107764	     -5.03486725	     -1.35025538	      1.02545610	     -0.42990736	      0.91319471	      6.22733875	     -2.54385203	     -8.92757742	      7.59376732	     -5.27867964	      1.13233767	     -3.39907962	     -9.10276026	    -10.19072337	     11.14316773	     -1.94836012	     -8.41181930	      2.66324568	      1.41728822
      0.04000000	     -0.03351279	     -4.31172077	     -4.98794871	     -1.35030604	      1.02545467	     -0.42985523	      0.91112343	      6.22502267	     -2.56581018	     -8.91913656	      7.59875986	     -5.28361551	      1.14308205	     -3.39663517	     -9.07638785	    -10.19194548	     11.13479596	     -1.94681623	     -8.42173280	      2.64322502	      1.44632303
      0.05000000	     -0.02939980	     -4.28733871	     -4.90739126	     -1.35037729	      1.02546001	     -0.42986559	      0.91648308	      6.20359471	     -2.65125146	     -8.92539650	      7.61141715	     -5.30076624	      1.14382782	     -3.37181307	     -8.98548218	    -10.16282243	     11.10441205	     -1.93819902	     -8.44006933	      2.61474574	      1.41202438
      0.06000000	     -0.02598520	     -4.27071784	     -4.83591281	     -1.35045917	      1.02546625	     -0.42985248	      0.91529840	      6.19271998	     -2.70950985	     -8.91933605	      7.62254978	     -5.31144589	      1.15125947	     -3.35847346	     -8.92103059	    -10.14935130	     11.08203773	     -1.93203067	     -8.45905377	      2.59397831	      1.39795905
      0.07000000	     -0.02674324	     -4.25692716	     -4.78006863	     -1.35055159	      1.02547002	     -0.42980425	      0.91495263	      6.18749349	     -2.74322444	     -8.90568705	      7.62916004	     -5.31477896	      1.16379692	     -3.35100347	     -8.88474740	    -10.14160828	     11.06674738	     -1.92816391	     -8.47490967	      2.57461037	      1.41303503
      0.08000000	     -0.02600102	     -4.23186089	     -4.69548980	     -1.35064139	      1.02547841	     -0.42980768	      0.91765372	      6.16762337	     -2.82540457	     -8.89833204	      7.63892774	     -5.32257907	      1.16956940	     -3.32673242	     -8.79987978	    -10.11250275	     11.02813083	     -1.91763725	     -8.48939600	      2.54725251	      1.37442228
      0.09000000	     -0.02827495	     -4.21502592	     -4.62290426	     -1.35074981	      1.02548229	     -0.42978815	      0.91968832	      6.15764118	     -2.88854198	     -8.88300003	      7.64562562	     -5.33089629	      1.18330280	     -3.31412453	     -8.74057594	    -10.09470860	     11.00278617	     -1.91124479	     -8.50484711	      2.52900296	      1.35346462
      0.10000000	     -0.03469811	     -4.19442336	     -4.54790484	     -1.35085392	      1.02548329	     -0.42976827	      0.92626360	      6.14416089	     -2.95711159	     -8.86693512	      7.64268536	     -5.34106282	      1.19701535	     -3.29712053	     -8.67547732	    -10.06786028	     10.97270174	     -1.90424037	     -8.51227370	      2.50698570	      1.32618006
      0.11000000	     -0.04319684	     -4.17721827	     -4.47665278	     -1.35097775	      1.02548160	     -0.42973962	      0.93485108	      6.13521502	     -3.01643353	     -8.84893089	      7.64139191	     -5.35265242	      1.21763631	     -3.28496749	     -8.61566476	    -10.04991388	     10.94295936	     -1.89825838	     -8.52026910	      2.48810177	      1.30732036
      0.12000000	     -0.05717301	     -4.15837223	     -4.40493293	     -1.35109670	      1.02547297	     -0.42971044	      0.94841564	      6.12421175	     -3.08248948	     -8.82877463	      7.63310369	     -5.36607893	      1.24063483	     -3.27079225	     -8.55119453	    -10.02432320	     10.91311844	     -1.89139766	     -8.51873793	      2.46818985	      1.28238764
      0.13000000	     -0.07413816	     -4.14239676	     -4.32914981	     -1.35124264	      1.02545857	     -0.42968856	      0.97250641	      6.11680331	     -3.14548900	     -8.82096630	      7.62657496	     -5.38441961	      1.27263487	     -3.26031906	     -8.47932738	    -10.00653554	     10.88254734	     -1.88404339	     -8.51636531	      2.45281960	      1.24568415
